<svg xmlns="http://www.w3.org/2000/svg" viewBox="0 0 82.41 130.74"><defs><style>.a{fill:#bf9b69;}.b{fill:#5cc0ce;}.c{fill:#fff;}</style></defs><path class="a" d="M32.77,20.32c-.06.12-.1.24-.15.37l.35.13.17-.36Zm0,0c-.06.12-.1.24-.15.37l.35.13.17-.36Zm0,0c-.06.12-.1.24-.15.37l.35.13.17-.36Zm0,0c-.06.12-.1.24-.15.37l.35.13.17-.36Zm0,0c-.06.12-.1.24-.15.37l.35.13.17-.36Zm0,0c-.06.12-.1.24-.15.37l.35.13.17-.36Zm44.62,5.24-.09-.13a25.61,25.61,0,0,0-1.78-2,39.14,39.14,0,0,0-12.86-8.51c-.8-.35-1.63-.68-2.46-1l-.58-.21a45.86,45.86,0,0,0-7.09-1.85A32.09,32.09,0,0,0,48,11.38,18.61,18.61,0,0,0,37,14a4.39,4.39,0,0,0-.5.34,13.24,13.24,0,0,0-2.06,1.72,14.36,14.36,0,0,0-2,2.56c-.08.13-.16.26-.23.4a8.82,8.82,0,0,0-.48.91,4.3,4.3,0,0,0-.21.43,10.42,10.42,0,0,1,1,.31l.35.13.17-.36c.16-.33.34-.65.52-.95l.2-.32a11.23,11.23,0,0,1,1.64-2.07,12.18,12.18,0,0,1,2.29-1.86c3.82-2.49,8.68-2.74,13.09-2.15a38.24,38.24,0,0,1,4.5.86c1.41.36,2.69.76,3.77,1.13.59.21,1.19.43,1.77.67.78.31,1.56.64,2.32,1A35.51,35.51,0,0,1,76,26.14l.17.21a17.2,17.2,0,0,1,1.38,2.06,23.9,23.9,0,0,1,2.94,13.2,24.19,24.19,0,0,1-4.1,12.45,19.66,19.66,0,0,1-2.27,2.78l0,0a21.33,21.33,0,0,1-1.87,1.68,20.51,20.51,0,0,1-5.42,2.89,24.48,24.48,0,0,1-2.39.74,26.51,26.51,0,0,1-8.13.73c-.42,0-.85-.06-1.27-.11a23.34,23.34,0,0,1-4.2-.9l-.37-.13c-.33-.1-.67-.23-1-.36l-.36-.16a10.21,10.21,0,0,1-.53,1l-.2.32c.17.07.32.14.48.19s.59.25.89.36l.48.15a23.39,23.39,0,0,0,4.66,1,29.1,29.1,0,0,0,8.79-.39c.81-.17,1.61-.37,2.4-.62a22.94,22.94,0,0,0,7-3.53l.34-.29a18.72,18.72,0,0,0,1.68-1.52c.32-.33.65-.68,1-1C83.62,48.13,83.8,34,77.39,25.56ZM32.77,20.32c-.06.12-.1.24-.15.37l.35.13.17-.36Zm0,0c-.06.12-.1.24-.15.37l.35.13.17-.36Zm0,0c-.06.12-.1.24-.15.37l.35.13.17-.36Zm0,0c-.06.12-.1.24-.15.37l.35.13.17-.36Zm0,0c-.06.12-.1.24-.15.37l.35.13.17-.36Zm0,0c-.06.12-.1.24-.15.37l.35.13.17-.36Zm0,0c-.06.12-.1.24-.15.37l.35.13.17-.36Z"/><path class="a" d="M68.8,38.6a16.76,16.76,0,0,0-1.34-2.68,14.13,14.13,0,0,0-4.14-4.37l0,0a11.46,11.46,0,0,0-1-.62,7.46,7.46,0,0,0-.69-.35l-.12-.06v0a11,11,0,0,1-.33,1.59l-.12.33h0a3,3,0,0,1,.36.19,9.59,9.59,0,0,1,1.29.85l0,0A12.07,12.07,0,0,1,65.83,37c3,4.81,2.58,11.35,1.44,16.51-.25,1.19-.54,2.3-.84,3.29-.17.56-.33,1.08-.49,1.55-.46,1.33-1,2.62-1.51,3.87-.24.57-.5,1.13-.76,1.69A36.63,36.63,0,0,1,57,73.63h0a23.2,23.2,0,0,1-1.88,1.74l-.08.07a17.77,17.77,0,0,1-3.11,2,23.72,23.72,0,0,1-20.8-.14A20.71,20.71,0,0,1,28.87,76a19.88,19.88,0,0,1-4.72-4.43A19,19,0,0,1,22,67.8c-.27-.6-.51-1.21-.73-1.85A26.68,26.68,0,0,1,20,59.2a28.46,28.46,0,0,1,.08-4.88,25.14,25.14,0,0,1,.58-3.15v0c.17-.62.34-1.24.55-1.82v-.06l-.25-.11-.05,0a11.31,11.31,0,0,1-1.35-.9l0,.12a6.81,6.81,0,0,0-.26.76c-.13.34-.23.7-.34,1l0,.08a25.82,25.82,0,0,0-.73,3.88A29.81,29.81,0,0,0,19,65a17.4,17.4,0,0,0,.58,1.86,22.5,22.5,0,0,0,3,5.88,20.55,20.55,0,0,0,2.71,2.94,18.49,18.49,0,0,0,2.17,1.73c8.53,6,20.78,5.72,28.42-.13l.34-.26c.72-.61,1.43-1.26,2.11-2,.17-.16.32-.31.48-.49a40.53,40.53,0,0,0,7.22-11.27c.25-.59.51-1.19.75-1.81.33-.81.64-1.65.93-2.5a49.59,49.59,0,0,0,1.57-5.81c.24-1.17.42-2.36.55-3.55A23.73,23.73,0,0,0,68.8,38.6Z"/><path class="a" d="M63.24,16.75c-.17-.63-.36-1.24-.58-1.84a22.34,22.34,0,0,0-3-5.88,19.81,19.81,0,0,0-2.7-2.92,17.41,17.41,0,0,0-2.2-1.75c-8.53-6-20.77-5.71-28.4.14L26,4.76a23.89,23.89,0,0,0-2.11,2l-.48.5a40.37,40.37,0,0,0-7.22,11.28c-.26.58-.52,1.18-.76,1.78-.32.82-.64,1.66-.93,2.52a49.55,49.55,0,0,0-1.54,5.78,34.51,34.51,0,0,0-.57,3.6,23.71,23.71,0,0,0,1.09,11,14.88,14.88,0,0,0,1.32,2.65,13.8,13.8,0,0,0,4.13,4.35l.07.05c.34.23.68.45,1,.64s.42.23.64.33l.12.06v0a10.32,10.32,0,0,1,.43-1.87v0l-.25-.13-.05,0a11.31,11.31,0,0,1-1.35-.9l0,0a12.18,12.18,0,0,1-3.11-3.43C13.37,40,13.82,33.44,15,28.28c.27-1.2.55-2.31.86-3.31.16-.56.32-1.08.48-1.55.47-1.34,1-2.63,1.51-3.87.25-.56.5-1.13.77-1.68a36.58,36.58,0,0,1,6.64-9.79A23.13,23.13,0,0,1,27.1,6.36l.08-.07a16.92,16.92,0,0,1,2.45-1.65l.66-.35a23.78,23.78,0,0,1,20.82.14,21.44,21.44,0,0,1,2.23,1.32l0,0a19.53,19.53,0,0,1,4.72,4.44,20.67,20.67,0,0,1,2.12,3.71c.26.61.51,1.22.72,1.85a26.33,26.33,0,0,1,1.34,6.76,27.37,27.37,0,0,1-.08,4.87,23.45,23.45,0,0,1-.58,3.15v0c-.14.53-.29,1-.45,1.54l-.12.33h0l.37.18a9.59,9.59,0,0,1,1.29.85l.05-.12c.09-.24.18-.49.25-.74s.23-.71.33-1.08l0-.08a26.48,26.48,0,0,0,.74-3.85A30.17,30.17,0,0,0,63.24,16.75Z"/><path class="a" d="M49.63,61a1.91,1.91,0,0,1-.36-.13l-.17.34a10.21,10.21,0,0,1-.53,1l-.2.32a11.51,11.51,0,0,1-1.63,2.07,12.32,12.32,0,0,1-2.3,1.86c-3.82,2.49-8.68,2.74-13.09,2.15a36.57,36.57,0,0,1-4.52-.88c-1.4-.35-2.67-.74-3.75-1.12-.6-.21-1.19-.44-1.77-.67-.79-.31-1.56-.64-2.31-1A35.39,35.39,0,0,1,6.22,55.59l-.17-.21a18.62,18.62,0,0,1-1.38-2.07,24,24,0,0,1-2.94-13.2A24.32,24.32,0,0,1,5.82,27.69,19.86,19.86,0,0,1,8.1,24.88l0,0A17.41,17.41,0,0,1,10,23.18a21.4,21.4,0,0,1,5.41-2.91,23.77,23.77,0,0,1,2.4-.72A26.19,26.19,0,0,1,26,18.82c.41,0,.81.05,1.22.09a23.65,23.65,0,0,1,4.2.9l.38.14c.34.11.66.23,1,.37l.37.14c.16-.33.34-.65.52-.95l.2-.32a2,2,0,0,0-.48-.19c-.29-.13-.59-.25-.89-.36s-.31-.1-.48-.15a23.55,23.55,0,0,0-4.66-1,28.45,28.45,0,0,0-8.78.41,23,23,0,0,0-2.41.62,22.16,22.16,0,0,0-7,3.52l-.34.29A20.37,20.37,0,0,0,7.1,23.82c-.33.34-.64.69-.95,1-7.54,8.76-7.71,22.91-1.31,31.33l.08.11a24.08,24.08,0,0,0,1.79,2,39.13,39.13,0,0,0,12.87,8.48c.8.35,1.62.69,2.46,1l.58.22a45.28,45.28,0,0,0,7.09,1.85,30.67,30.67,0,0,0,4.54.47,18.58,18.58,0,0,0,11-2.63c.17-.11.33-.23.5-.33a14.32,14.32,0,0,0,2-1.73,13.91,13.91,0,0,0,2-2.56,4,4,0,0,0,.24-.41c.17-.29.33-.59.48-.91.07-.13.13-.27.2-.42C50.31,61.26,50,61.16,49.63,61Z"/><path class="a" d="M77.41,25.7l0-.14C76.09,15,66.14,5.09,54.72,4.36a12.63,12.63,0,0,0-1.38-.06,18.65,18.65,0,0,0-2.23.13,3.44,3.44,0,0,0-.45.05,22.61,22.61,0,0,0-7.44,2.57c-.72.4-1.41.83-2.1,1.29a30,30,0,0,0-6.51,6.06A24.48,24.48,0,0,0,32,18.49a2.94,2.94,0,0,0-.2.44c-.15.29-.28.59-.41.88s-.14.32-.2.49a2.45,2.45,0,0,1,.37.08,10.42,10.42,0,0,1,1,.31c.05-.13.09-.25.15-.37.13-.33.28-.66.44-1l.17-.34a23.27,23.27,0,0,1,2.35-3.68c.25-.33.52-.65.8-1A26.86,26.86,0,0,1,42.82,9,21.38,21.38,0,0,1,45,7.79a20.83,20.83,0,0,1,5.85-1.86,20.39,20.39,0,0,1,2.48-.16h0a17.82,17.82,0,0,1,3.56.34,20.27,20.27,0,0,1,4.34,1.25A24.64,24.64,0,0,1,68.45,12a23.53,23.53,0,0,1,7.07,11.47A17.08,17.08,0,0,1,76,25.85l0,.29A36.45,36.45,0,0,1,73.48,42c-.29.79-.61,1.57-1,2.36-.24.58-.51,1.17-.79,1.75-.5,1-1.12,2.24-1.87,3.5a38.74,38.74,0,0,1-2.6,3.89c-2.71,3.6-6.32,6.91-10.74,7.9a12.63,12.63,0,0,1-2.91.34A11.81,11.81,0,0,1,51,61.43l-.37-.08c-.35-.09-.7-.19-1-.31a1.91,1.91,0,0,1-.36-.13l-.17.34a10.21,10.21,0,0,1-.53,1l.45.17c.32.1.64.21,1,.29a3.74,3.74,0,0,0,.45.12,13.52,13.52,0,0,0,3.19.38,13.76,13.76,0,0,0,2.68-.27c.18,0,.37-.07.55-.12a18.83,18.83,0,0,0,9.58-6,34.61,34.61,0,0,0,2.89-3.63A47.69,47.69,0,0,0,73,46.73c.09-.2.18-.39.26-.59.39-.81.74-1.63,1.06-2.44a40.64,40.64,0,0,0,3.21-15.29A26.85,26.85,0,0,0,77.41,25.7Z"/><path class="a" d="M63.18,25.38a14.81,14.81,0,0,0-.92-2.85A23.19,23.19,0,0,0,55.38,14a35,35,0,0,0-2.85-2.11,47.89,47.89,0,0,0-5.12-3c-.8-.39-1.6-.76-2.4-1.1-.6-.26-1.2-.51-1.79-.74A38.5,38.5,0,0,0,30.29,4.29h-.66a24.33,24.33,0,0,0-2.86.15l-.45.07C16.86,5.87,8.06,14.5,6.15,24.86a20.25,20.25,0,0,0-.33,2.83,21.42,21.42,0,0,0,.13,4A22.33,22.33,0,0,0,7.88,38c.27.58.56,1.16.87,1.72A28.84,28.84,0,0,0,15.68,48a23.67,23.67,0,0,0,3.2,2.2l.07.05,1,.56.64.3.12,0a10.32,10.32,0,0,1,.43-1.87v-.06l-.25-.11-.05,0a14.81,14.81,0,0,1-1.39-.78h0a22,22,0,0,1-2.58-1.81A26.8,26.8,0,0,1,9.7,37.39a18,18,0,0,1-.76-1.82,19,19,0,0,1-1.09-4.15,20.26,20.26,0,0,1,.25-6.54,21.31,21.31,0,0,1,.68-2.58,24.07,24.07,0,0,1,3.8-7.12,23.57,23.57,0,0,1,10.8-8A17.37,17.37,0,0,1,27,6.37h.12c.81-.08,1.65-.13,2.53-.13a32.94,32.94,0,0,1,8.21,1.12c1.08.28,2.18.62,3.28,1,.57.2,1.13.42,1.7.65,1.24.48,2.49,1,3.74,1.65l1.42.74c.9.5,1.89,1.07,2.9,1.73,4.39,2.84,9.24,7.12,10.43,12.71a12.06,12.06,0,0,1,.17,4.67v0a11,11,0,0,1-.33,1.59l-.11.34h0l.37.18a9.59,9.59,0,0,1,1.29.85l0,0,0-.12c.09-.26.16-.51.23-.77s.2-.73.28-1.11v-.09A14.4,14.4,0,0,0,63.18,25.38Z"/><path class="a" d="M76.28,50a23,23,0,0,0-1.93-6.34c-.27-.6-.56-1.16-.87-1.73a28.94,28.94,0,0,0-6.94-8.29,25.41,25.41,0,0,0-3.2-2.21l-.06,0-1-.53c-.23-.1-.46-.22-.69-.33l-.12-.05a11,11,0,0,1-.33,1.59l-.12.33h0l.37.18c.46.23.9.47,1.34.73l0,0a23,23,0,0,1,2.59,1.81A27,27,0,0,1,68.8,38.6a26.07,26.07,0,0,1,3.73,5.73c.29.61.54,1.21.76,1.81a20.17,20.17,0,0,1,1.1,4.16,20.82,20.82,0,0,1-.26,6.54v0a19.15,19.15,0,0,1-.67,2.55,24.4,24.4,0,0,1-14.6,15.09l-.73.24a18.09,18.09,0,0,1-2.87.6h-.11c-.81.08-1.66.13-2.53.13a35.18,35.18,0,0,1-11.5-2.12c-.57-.21-1.14-.41-1.7-.65-1.25-.48-2.49-1-3.74-1.64-.44-.22-.92-.47-1.42-.75-.9-.48-1.89-1.06-2.9-1.72C27,65.79,22.12,61.5,20.92,55.91a12.32,12.32,0,0,1-.17-4.68v0a10.32,10.32,0,0,1,.43-1.87v-.06l-.25-.11-.05,0a11.31,11.31,0,0,1-1.35-.9l0,0,0,.13c-.09.26-.16.51-.23.77s-.2.72-.27,1.1l0,.08a14.49,14.49,0,0,0,.11,6.07A14.79,14.79,0,0,0,20,59.2a23.27,23.27,0,0,0,6.86,8.54q1.38,1.13,2.88,2.13a51.71,51.71,0,0,0,5.11,3c.8.39,1.59.76,2.39,1.1.59.26,1.2.51,1.79.73a38.39,38.39,0,0,0,13,2.77h.66a26.51,26.51,0,0,0,2.85-.15l.46-.07c9.45-1.38,18.26-10,20.16-20.35a21.92,21.92,0,0,0,.32-2.82A20.87,20.87,0,0,0,76.28,50Z"/><path class="a" d="M50.66,61.35c-.35-.09-.7-.19-1-.31-.05.13-.11.25-.17.37a7.75,7.75,0,0,1-.44,1l-.17.34a24.29,24.29,0,0,1-2.36,3.68c-.25.33-.52.65-.78,1a27.43,27.43,0,0,1-6.3,5.35,23.76,23.76,0,0,1-2.2,1.21,20.81,20.81,0,0,1-5.83,1.86,20.8,20.8,0,0,1-2.49.15h0a20.09,20.09,0,0,1-3.54-.32,23.24,23.24,0,0,1-11.54-5.85A23.61,23.61,0,0,1,6.71,58.33a16.13,16.13,0,0,1-.46-2.46l0-.28A36.45,36.45,0,0,1,8.75,39.76c.29-.79.62-1.57.95-2.37.25-.58.51-1.17.79-1.75.5-1,1.13-2.22,1.87-3.47A37,37,0,0,1,15,28.28c2.71-3.6,6.32-6.93,10.75-7.92A12.73,12.73,0,0,1,28.62,20a11.66,11.66,0,0,1,2.58.29,2.45,2.45,0,0,1,.37.08,10.42,10.42,0,0,1,1,.31l.35.13.17-.36c.16-.33.34-.65.52-.95l-.45-.17c-.31-.11-.64-.21-1-.3l-.45-.11a13.58,13.58,0,0,0-3.19-.38,12.72,12.72,0,0,0-2.64.27,4.25,4.25,0,0,0-.6.12,18.64,18.64,0,0,0-9.57,6,31.55,31.55,0,0,0-2.88,3.6A48.15,48.15,0,0,0,9.21,35c-.1.19-.19.39-.27.58-.38.83-.74,1.66-1.06,2.47A41.05,41.05,0,0,0,4.67,53.31c0,.93.06,1.83.15,2.72l0,.16C6.17,66.75,16.11,76.62,27.5,77.36c.47,0,.93.06,1.39.06a21.67,21.67,0,0,0,2.26-.12l.42,0A22.12,22.12,0,0,0,39,74.67a22.42,22.42,0,0,0,2.11-1.29,29,29,0,0,0,6.51-6,24.89,24.89,0,0,0,2.6-4.09c.07-.14.14-.28.21-.44a9.1,9.1,0,0,0,.4-.9,5.11,5.11,0,0,0,.2-.47Z"/><path class="b" d="M45,26.62c.42,0,.87,0,1.33.06,2,1.32,4.18,3.24,4.67,5.48v.05A4.06,4.06,0,0,1,51,33.87l0,.19-.08.32a3.23,3.23,0,0,0,.72,3.52,3.32,3.32,0,0,0,1,.69l.07,0a3.75,3.75,0,0,1,.35.22l.13.09a4.61,4.61,0,0,1,1.13,1.23v0c1,1.55,1.24,4.06.64,7.13a9.08,9.08,0,0,1-4.61,3.18,5.3,5.3,0,0,1-1.15.14,4.43,4.43,0,0,1-1-.1l-.12,0h-.07l-.35-.1-.08,0a3.27,3.27,0,0,0-1.23-.23,3.41,3.41,0,0,0-1.18.21,3.33,3.33,0,0,0-1.86,1.73l0,.07-.19.33-.06.1,0,0,0,.06a4.15,4.15,0,0,1-.61.73l0,0a3.88,3.88,0,0,1-.86.67l-.05,0a7.84,7.84,0,0,1-4.2,1c-.43,0-.88,0-1.34-.06-2.62-1.75-4.27-3.68-4.67-5.48v0a4.11,4.11,0,0,1-.07-1.67l0-.19a2.85,2.85,0,0,1,.13-.5l.1-.37a3.08,3.08,0,0,0,.07-.68,3.27,3.27,0,0,0-2-3,3.42,3.42,0,0,1-.4-.26L29,42.8a4.39,4.39,0,0,1-1.13-1.22l0,0c-1.26-1.92-1.09-4.81-.64-7.12a9.1,9.1,0,0,1,4.61-3.2A5.29,5.29,0,0,1,33,31.1a4.41,4.41,0,0,1,1,.1h.2l.38.11h0a3.36,3.36,0,0,0,4.2-1.57l.06-.11,0-.11.2-.35,0-.07,0,0,0-.06a4.6,4.6,0,0,1,.61-.74l0,0a5.32,5.32,0,0,1,.86-.67l0,0a7.88,7.88,0,0,1,4.21-1M31.51,46.16h0M45,23.36a11.13,11.13,0,0,0-6,1.51A7.73,7.73,0,0,0,37.47,26a8.08,8.08,0,0,0-1.06,1.29l-.12.2a5.82,5.82,0,0,0-.34.6l-.12.22-.22-.08c-.23-.07-.45-.14-.68-.19L34.69,28A7.77,7.77,0,0,0,33,27.84a8.69,8.69,0,0,0-1.89.21c-2.87.62-5.21,2.71-7,4.95-.73,3.23-1,7.3.94,10.31a7.61,7.61,0,0,0,2,2.14l0,0h0A6.46,6.46,0,0,0,28,46h0l.16.08h0v0a5.94,5.94,0,0,0-.28,1.16v0A7.43,7.43,0,0,0,28,50.27c.77,3.5,3.92,6.18,6.76,7.94a18.59,18.59,0,0,0,2.49.17,11.21,11.21,0,0,0,6-1.51,8.14,8.14,0,0,0,1.49-1.16,7.57,7.57,0,0,0,1.06-1.29l.13-.2c.12-.2.24-.4.34-.61l.11-.21.23.08c.22.07.45.14.67.19l.24,0a7.86,7.86,0,0,0,1.68.18,8.85,8.85,0,0,0,1.89-.22c2.86-.62,5.2-2.69,7-4.93.74-3.23,1-7.32-.94-10.32a7.51,7.51,0,0,0-2-2.15l0,0a6.61,6.61,0,0,0-.84-.53L54,35.62h0l.08-.2a7.36,7.36,0,0,0,.22-1v0a7.38,7.38,0,0,0-.12-2.92c-.77-3.5-3.91-6.17-6.76-7.95A20.39,20.39,0,0,0,45,23.36Z"/><polygon class="c" points="2.87 120.97 2.94 120.89 3.79 122.91 5.36 126.37 6.31 128.39 8.61 128.39 9.89 125.68 11.1 123.03 11.98 120.92 12.05 120.92 12.05 130.71 14.92 130.71 14.92 114.21 12.17 114.21 10.06 118.92 8.85 121.7 7.52 124.85 7.42 124.85 4.84 118.92 2.68 114.21 0 114.21 0 130.71 2.87 130.71 2.87 120.97"/><path class="c" d="M21.28,127.06h6.11l1.31,3.65h3l-6.23-16.5H23.17l-6.23,16.5h3Zm1.94-5.86,1.07-3.32h.07l1.09,3.39,1.09,3.35H22.11Z"/><path class="c" d="M38.4,130.74l.74-2.64.71-2.56,1.59-6,.07,0,1.4,5.29,1.66,6h2.37l4.29-16.51h-3c-.4,1.59-1,4.32-1.87,8.18l-.26,1.26-.33,1.66h-.1l-.78-2.94c-.57-2.16-1.33-4.86-2.28-8.16H40.39l-2.25,8.09-.76,3h-.1l-.66-3-1.85-8.06H31.71L36,130.74Z"/><polygon class="c" points="56.54 126.14 59.23 123.03 63.85 130.71 67.24 130.71 61.12 120.8 66.69 114.21 63.28 114.21 59.39 118.83 56.62 122.22 56.57 122.2 56.57 114.21 53.68 114.21 53.68 130.71 56.54 130.71 56.54 126.14"/><polygon class="c" points="72.15 119.28 72.22 119.26 74.52 123.03 79.62 130.71 82.28 130.71 82.28 114.21 79.41 114.21 79.41 125.64 79.36 125.68 76.56 121.23 71.94 114.21 69.28 114.21 69.28 130.71 72.15 130.71 72.15 119.28"/><polygon class="c" points="5.73 92.62 4.1 92.62 3.98 94.28 5.62 94.28 5.73 92.62"/><path class="c" d="M56.45,87.74,48,93.31V94.5l5.14,3.29c1.26.83,1.62,1.83,1.62,3.51v2.16H10.93l-.13,0H9.51V95.8H8.13v8.94c0,2.16-1.11,3.56-3.27,3.56S1.64,107,1.64,104.84V98.27H.26v7c0,2.85,1.64,4.56,4.6,4.56a4.32,4.32,0,0,0,3.39-1.4A5,5,0,0,0,9.51,105H56.12v-3.87a6.9,6.9,0,0,0-.38-2.47A4.16,4.16,0,0,0,54,96.73l-4.51-2.9,7.68-5Z"/><path class="c" d="M77.81,93.69c-3.13,0-4.89,2-4.89,5.86v1a3,3,0,0,1-3.09,2.94l-.13,0H68.4V98.84c0-3.3-1.59-5.15-4.53-5.15-3.2,0-4.83,2.21-4.83,5.79,0,3.91,1.82,5.48,5.31,5.48h2.56c0,2.2-1.57,3.36-3.72,3.36h-3v1.5h3.13c3,0,5-1.64,5.07-4.86h1.43c1.35,0,3.47-.57,3.92-1.74.69,1.26,2,1.88,3.87,1.88,3.2,0,4.79-1.88,4.79-5.65S80.87,93.69,77.81,93.69Zm-10.88,9.79H64.11c-2.25,0-3.6-1-3.6-4,0-2.75,1.09-4.29,3.27-4.29s3.15,1.4,3.15,4.13Zm10.78.17q-3.27,0-3.27-4.27c0-2.8,1.12-4.2,3.32-4.2s3.2,1.52,3.2,4C81,102.42,79.8,103.65,77.71,103.65Z"/></svg>