<svg xmlns="http://www.w3.org/2000/svg" viewBox="0 0 410.83 693.18"><defs><style>.cls-1{fill:#fff;}</style></defs><title>Asset 9</title><g id="Layer_2" data-name="Layer 2"><g id="Layer_1-2" data-name="Layer 1"><path class="cls-1" d="M397.35,364.9l-.71-1.11c-43.19-67.27-80.84-135.67-111.92-203.3-18-39.18-52.54-140.56-52.88-141.57a27.9,27.9,0,0,0-52.83,0c-.35,1-34.92,102.42-52.91,141.58-31,67.57-68.68,136-111.91,203.3l-.72,1.11a84.92,84.92,0,0,0-11.72,63,86.63,86.63,0,0,0,32.48,51.59A27.9,27.9,0,0,0,78.1,450.25a41.67,41.67,0,0,1-1.32-10.47,43.28,43.28,0,0,1,5.42-21.15,40.5,40.5,0,0,1,6.25-8.37,39.06,39.06,0,0,1,28.29-11.86,27.92,27.92,0,0,0,27.91-27.91,63.71,63.71,0,0,1,8.8-32.52,60.38,60.38,0,0,1,106.09,4,63.39,63.39,0,0,1,6.64,28.56,27.91,27.91,0,0,0,27.91,27.91,39.24,39.24,0,0,1,34.56,20.26,43.28,43.28,0,0,1,5.4,21.12,41.67,41.67,0,0,1-1.32,10.47,27.9,27.9,0,0,0,43.86,29.25,86.64,86.64,0,0,0,32.49-51.6A84.91,84.91,0,0,0,397.35,364.9Z"/><path class="cls-1" d="M47.49,626.72H38.37V604.08H18v22.64H8.81V573.83H18V596H38.37V573.83h9.12Z"/><path class="cls-1" d="M104,626.72H94.3L90.13,615H70.52l-4.26,11.7H56.61l20-52.89h7.45ZM87.39,607.19l-3.5-10.71L80.4,585.61h-.23l-3.42,10.64-3.57,10.94Z"/><path class="cls-1" d="M154.87,626.72h-8.51L130,602.1,122.66,590l-.23.07v36.63h-9.2V573.83h8.51l14.82,22.49,9,14.29.15-.15V573.83h9.19Z"/><path class="cls-1" d="M194.62,615.63a10.86,10.86,0,0,0,3.12-7.6v-2.28h-11v-7.91h20.14v10.41a17.91,17.91,0,0,1-5.7,13.61,19.54,19.54,0,0,1-14.06,5.32c-6.38,0-11.25-1.83-14.59-5.55s-5-8.59-5-14.59V593.51a21,21,0,0,1,5-14.28c3.34-3.88,8.13-5.78,14.36-5.78,9.12,0,15.81,4.71,18.54,12.31l-8.66,3.42c-1.29-4.25-5-7-9.95-7-6.62,0-10.11,4.86-10.11,10.94v14.29a12.42,12.42,0,0,0,2.74,8.05,9.44,9.44,0,0,0,7.67,3.35A10.07,10.07,0,0,0,194.62,615.63Z"/><path class="cls-1" d="M261.27,626.72h-8.51L236.42,602.1,229.05,590l-.23.07v36.63h-9.19V573.83h8.51L243,596.32l9,14.29.15-.15V573.83h9.19Z"/><path class="cls-1" d="M311.05,626.72H275.64V573.83h35.41v8.36H284.83V596h22.34v8.06H284.83v14.28h26.22Z"/><path class="cls-1" d="M351.18,585.91A23.17,23.17,0,0,0,338.11,582c-6.08,0-9,2.66-9,6.69a4.86,4.86,0,0,0,2.74,4.56c1.9.91,5.24,1.82,10.18,2.66,4.48.83,7.45,1.82,10.56,4,3.27,2.12,5,5.92,5,11.17a13.89,13.89,0,0,1-5.78,11.77,22.67,22.67,0,0,1-14.13,4.34q-12.76,0-21-7.3l5.54-7.14a22.81,22.81,0,0,0,15.88,5.85c6,0,9.8-2.59,9.8-7.22,0-4.18-3-6.23-9.65-7.22a38.56,38.56,0,0,1-10.41-2.51C323,599.52,320.25,596,320,589c0-4.94,1.75-8.81,5.25-11.47a20.13,20.13,0,0,1,12.69-4.1c7.21,0,13.14,1.67,17.78,4.94Z"/><path class="cls-1" d="M402,582H387.28v44.68h-9.2V582H363.42v-8.21H402Z"/><line class="cls-1" x1="8.81" y1="529.27" x2="402.02" y2="529.27"/><path class="cls-1" d="M402,536.25H8.81a7,7,0,0,1,0-14H402a7,7,0,0,1,0,14Z"/><path class="cls-1" d="M48.37,692.67V650.15H48.3L40.81,666l-9.06,18.85H28.87l-9.07-19-7.55-15.68c0,.07,0,.07-.07.07v42.45H8.94V642.59h3.38l11.23,23.6,6.76,14.39h.07l6.84-14.39,11.22-23.6h3.24v50.08Z"/><path class="cls-1" d="M85.57,688.79H85.5c-1.8,2.87-5.83,4.31-11.94,4.31C66.36,693.1,61,689.51,61,683c0-6,4.17-10,11.44-10H85.57v-5.11c0-5.47-2.87-8.28-10.29-8.28A14.16,14.16,0,0,0,65.35,663l-2-2.16c3-2.81,6.91-4.25,12-4.25,8.27,0,13.38,2.81,13.38,11.08v25H85.57Zm0-13.17H73.2c-5.76,0-9.14,2.52-9.14,7.19,0,4.83,3.81,7.56,9.93,7.56,4.6,0,11.58-1.37,11.58-7.63Z"/><path class="cls-1" d="M144.29,657.13l-11.15,35.54H130l-6.33-18.78L119.54,662l-4,11.94-6.34,18.78H106L94.93,657.13h3.45l5.76,19.5,3.45,11.51h.14l3.82-11.44L118,657.13h3.17l6.4,19.5,3.82,11.65h.21l3.46-11.73,5.75-19.42Z"/><path class="cls-1" d="M177.17,692.67l-13.24-20.36-9,10.22v10.14h-3.1V640.72h3.1v37.56H155L173.93,657h3.75L166,670.15l14.68,22.52Z"/><path class="cls-1" d="M214.66,692.67h-3.09V669.86c0-6.83-3.38-10.21-10.08-10.21a10.56,10.56,0,0,0-7.84,3.23,11.11,11.11,0,0,0-3.16,8.21v21.58h-3.1V657.05h3.1v6.12h.14c2.23-4.25,7-6.48,11.51-6.48,8,0,12.52,4.39,12.52,12.09Z"/><path class="cls-1" d="M275.39,683c-2.59,6.33-8.27,10.15-15.68,10.15-5.69,0-9.93-1.73-12.88-5.18s-4.39-7.78-4.39-13V660.08a18.7,18.7,0,0,1,4.46-12.74c3-3.38,7.27-5.11,12.81-5.11,7.19,0,12.8,3.6,15.47,9.36l-3,1.51a13.11,13.11,0,0,0-12.37-7.77c-4.53,0-8,1.44-10.43,4.24a16,16,0,0,0-3.6,10.65V675a16.3,16.3,0,0,0,3.6,10.72c2.44,2.88,5.9,4.32,10.43,4.32,5.83,0,10.07-2.8,12.59-8.42Z"/><path class="cls-1" d="M291.72,692.67c-5.39,0-8.2-2.09-8.2-7.34V640.72h3.17v44.11c0,3.38,1.87,5.11,5.54,5.11h.57v2.73Z"/><path class="cls-1" d="M325.33,662.38c1.66,2.66,2.52,6.91,2.52,12.74,0,5.68-1.15,10.07-3.53,13.09-2.52,3.24-6.26,4.89-11.08,4.89-4.39,0-7.84-1.36-10.22-4-2.66-3-3.95-7.78-3.95-14.32,0-5.83,1.29-10.22,3.88-13.32a13.35,13.35,0,0,1,10.87-4.82C319,656.62,322.81,658.56,325.33,662.38Zm-20,1.08c-2.09,2.66-3.1,6.48-3.1,11.44,0,5.11,1,9,3.1,11.65a9.65,9.65,0,0,0,8.13,3.75,9.77,9.77,0,0,0,8.56-4.39c1.8-2.52,2.66-6.19,2.66-10.87s-.65-8.34-1.94-10.57c-1.94-3.39-5-5-9.07-5A10.12,10.12,0,0,0,305.33,663.46Z"/><path class="cls-1" d="M364.91,692.67h-3.1v-5.75h-.14c-2.23,4.24-6.84,6.11-11.44,6.11-7.49,0-12.67-4.6-12.67-12V657h3.17v22.81c0,6.62,3.88,10.36,10.14,10.36a10.74,10.74,0,0,0,7.85-3.16,11.38,11.38,0,0,0,3.16-8.2V657h3Z"/><path class="cls-1" d="M401.89,692.67H398.8v-5.54h-.15a12.07,12.07,0,0,1-10.93,6c-4.68,0-8.14-1.66-10.22-5s-3.17-7.84-3.17-13.31a25,25,0,0,1,2.81-12.38c2-3.67,5.76-5.83,10.94-5.83a12.16,12.16,0,0,1,10.57,5.76h.15V640.65h3.09Zm-5.61-28.78q-2.49-4.32-8-4.32c-7.12,0-10.65,5.11-10.65,15.33s3.53,15.33,10.65,15.33c4.25,0,7.2-2.09,8.57-5.33A23.34,23.34,0,0,0,398.8,675,22.3,22.3,0,0,0,396.28,663.89Z"/></g></g></svg>