<?xml version="1.0" encoding="utf-8"?>
<!-- Generator: Adobe Illustrator 23.1.0, SVG Export Plug-In . SVG Version: 6.00 Build 0)  -->
<svg version="1.1" id="Layer_1" xmlns="http://www.w3.org/2000/svg" xmlns:xlink="http://www.w3.org/1999/xlink" x="0px" y="0px"
	 viewBox="0 0 477 543.2" style="enable-background:new 0 0 477 543.2;" xml:space="preserve">
<style type="text/css">
	.st0{fill:#FFFFFF;}
</style>
<g>
	<path class="st0" d="M430.4,393.9c-0.2-0.4-0.5-0.7-0.7-1.1c-43.2-67.3-80.8-135.7-111.9-203.3C299.8,150.3,265.3,49,264.9,48
		C261.1,36.6,250.5,29,238.5,29c-11.9,0-22.6,7.6-26.4,18.9c-0.3,1-34.9,102.4-52.9,141.6c-31,67.6-68.7,136-111.9,203.3
		c-0.2,0.4-0.5,0.7-0.7,1.1c-12,18.9-16.2,41.3-11.7,63c4.2,20.6,15.8,38.9,32.5,51.6c5,3.8,10.9,5.7,16.9,5.7
		c5.4,0,10.8-1.6,15.5-4.7c9.9-6.6,14.5-18.7,11.5-30.2c-0.9-3.4-1.3-6.9-1.3-10.5c0-7.5,1.9-14.8,5.4-21.1c1.7-3.1,3.8-5.9,6.3-8.4
		c7.4-7.7,17.5-11.9,28.3-11.9c15.4,0,27.9-12.5,27.9-27.9c0-11.6,3-22.8,8.8-32.5c11-18.6,30.4-29.6,52-29.6
		c23.1,0,43.8,12.9,54.1,33.6c4.4,8.8,6.6,18.4,6.6,28.6c0,15.4,12.5,27.9,27.9,27.9c14.5,0,27.4,7.6,34.6,20.3
		c3.5,6.3,5.4,13.6,5.4,21.1c0,3.6-0.4,7.1-1.3,10.5c-3,11.5,1.6,23.6,11.5,30.2c4.7,3.1,10.1,4.7,15.5,4.7c6,0,11.9-1.9,16.9-5.7
		c16.7-12.7,28.3-31,32.5-51.6C446.6,435.2,442.5,412.8,430.4,393.9z"/>
</g>
</svg>
